<svg width="24" height="24" viewBox="0 0 24 24" fill="none" xmlns="http://www.w3.org/2000/svg">
<path d="M17.5 11H6.5C5.83696 11 5.20107 10.7366 4.73223 10.2678C4.26339 9.79893 4 9.16304 4 8.5C4 7.83696 4.26339 7.20107 4.73223 6.73223C5.20107 6.26339 5.83696 6 6.5 6H10V8L14 5L10 2V4H6.5C4.02 4 2 6.02 2 8.5C2 10.98 4.02 13 6.5 13H17.5C18.163 13 18.7989 13.2634 19.2678 13.7322C19.7366 14.2011 20 14.837 20 15.5C20 16.163 19.7366 16.7989 19.2678 17.2678C18.7989 17.7366 18.163 18 17.5 18H7.82C7.61495 17.4156 7.23351 16.9094 6.72836 16.5511C6.22322 16.1928 5.61929 16.0003 5 16C3.35 16 2 17.35 2 19C2 20.65 3.35 22 5 22C6.3 22 7.4 21.16 7.82 20H17.5C19.98 20 22 17.98 22 15.5C22 13.02 19.98 11 17.5 11ZM19 2C18.2044 2 17.4413 2.31607 16.8787 2.87868C16.3161 3.44129 16 4.20435 16 5C16 5.79565 16.3161 6.55871 16.8787 7.12132C17.4413 7.68393 18.2044 8 19 8C19.7956 8 20.5587 7.68393 21.1213 7.12132C21.6839 6.55871 22 5.79565 22 5C22 4.20435 21.6839 3.44129 21.1213 2.87868C20.5587 2.31607 19.7956 2 19 2Z" fill="white"/>
</svg>
