<svg width="24" height="24" viewBox="0 0 24 24" fill="none" xmlns="http://www.w3.org/2000/svg">
<path fill-rule="evenodd" clip-rule="evenodd" d="M7.2 3.00056C5.92696 3.00056 4.70606 3.47466 3.80589 4.31854C2.90571 5.16243 2.4 6.30699 2.4 7.50042C2.4 8.69386 2.90571 9.83842 3.80589 10.6823C4.70606 11.5262 5.92696 12.0003 7.2 12.0003C8.47304 12.0003 9.69394 11.5262 10.5941 10.6823C11.4943 9.83842 12 8.69386 12 7.50042C12 6.30699 11.4943 5.16243 10.5941 4.31854C9.69394 3.47466 8.47304 3.00056 7.2 3.00056ZM4.8 13.1252C3.52696 13.1252 2.30606 13.5993 1.40589 14.4432C0.505713 15.2871 0 16.4317 0 17.6251V18.7501C0 19.3468 0.252856 19.9191 0.702944 20.341C1.15303 20.763 1.76348 21 2.4 21H12C12.6365 21 13.247 20.763 13.6971 20.341C14.1471 19.9191 14.4 19.3468 14.4 18.7501V17.6251C14.4 16.4317 13.8943 15.2871 12.9941 14.4432C12.0939 13.5993 10.873 13.1252 9.6 13.1252H4.8ZM13.5 10.7684C14.0736 9.80098 14.4 8.68726 14.4 7.50042C14.4003 6.35683 14.0906 5.23192 13.5 4.23128C14.1814 3.62687 15.0367 3.22287 15.9604 3.06922C16.884 2.91557 17.8354 3.019 18.697 3.36672C19.5586 3.71445 20.2927 4.29123 20.8084 5.02578C21.3242 5.76033 21.599 6.62046 21.599 7.49986C21.599 8.37926 21.3242 9.23939 20.8084 9.97394C20.2927 10.7085 19.5586 11.2853 18.697 11.633C17.8354 11.9807 16.884 12.0842 15.9604 11.9305C15.0367 11.7769 14.1814 11.3729 13.5 10.7684ZM16.1592 21C16.5672 20.3385 16.8012 19.5702 16.8012 18.7501V17.6251C16.8034 15.9644 16.1503 14.3616 14.9676 13.1252H19.2C20.473 13.1252 21.6939 13.5993 22.5941 14.4432C23.4943 15.2871 24 16.4317 24 17.6251V18.7501C24 19.3468 23.7471 19.9191 23.2971 20.341C22.847 20.763 22.2365 21 21.6 21H16.1592Z" fill="white"/>
</svg>
